<svg width="170" height="30" viewBox="0 0 170 30" fill="none" xmlns="http://www.w3.org/2000/svg">
<path d="M29.0927 29H22.6527L22.1727 18.16C22.0393 15.5733 21.9727 13.2667 21.9727 11.24C21.9727 9.69333 22.0127 8.22667 22.0927 6.84L17.8127 26.08H11.6127L7.05266 6.84C7.21266 9.16 7.29266 11.3467 7.29266 13.4C7.29266 14.9467 7.25266 16.56 7.17266 18.24L6.69266 29H0.292656L2.37266 1.28H10.6527L14.8127 20.08L18.6927 1.28H27.0127L29.0927 29ZM47.618 29L46.178 23.04H38.098L36.698 29H29.898L38.258 1.28H46.218L54.578 29H47.618ZM39.218 18.28H45.058L42.138 6.04L39.218 18.28ZM73.5795 1.28L72.9395 6.32H66.0995V29H59.5395V6.32H52.3795V1.28H73.5795ZM91.1011 29V17.12H82.7811V29H76.2211V1.28H82.7811V12H91.1011V1.28H97.6611V29H91.1011ZM119.862 1.28L119.182 5.96H109.422V12.6H117.942V17.2H109.422V24.28H119.862V29H102.862V1.28H119.862ZM145.156 19.8C145.156 21.6933 144.743 23.3867 143.916 24.88C143.116 26.3733 141.903 27.5467 140.276 28.4C138.65 29.2533 136.663 29.68 134.316 29.68C130.796 29.68 128.116 28.7867 126.276 27C124.436 25.2133 123.516 22.8133 123.516 19.8V1.28H130.076V19.52C130.076 21.3067 130.41 22.64 131.076 23.52C131.77 24.3733 132.85 24.8 134.316 24.8C135.81 24.8 136.89 24.3733 137.556 23.52C138.25 22.64 138.596 21.3067 138.596 19.52V1.28H145.156V19.8ZM158.657 0.599998C160.737 0.599998 162.537 0.893332 164.057 1.48C165.603 2.06667 167.003 2.96 168.257 4.16L165.217 7.72C163.323 6.17333 161.297 5.4 159.137 5.4C157.99 5.4 157.083 5.64 156.417 6.12C155.75 6.57333 155.417 7.24 155.417 8.12C155.417 8.73333 155.563 9.24 155.857 9.64C156.15 10.0133 156.67 10.3733 157.417 10.72C158.163 11.0667 159.283 11.48 160.777 11.96C163.603 12.8667 165.683 13.9867 167.017 15.32C168.35 16.6267 169.017 18.4933 169.017 20.92C169.017 22.6533 168.577 24.1867 167.697 25.52C166.817 26.8267 165.55 27.8533 163.897 28.6C162.243 29.32 160.283 29.68 158.017 29.68C155.75 29.68 153.737 29.32 151.977 28.6C150.243 27.88 148.75 26.92 147.497 25.72L150.817 22.08C151.883 22.9867 152.977 23.6667 154.097 24.12C155.243 24.5733 156.483 24.8 157.817 24.8C159.177 24.8 160.243 24.5067 161.017 23.92C161.817 23.3067 162.217 22.4667 162.217 21.4C162.217 20.7067 162.07 20.1333 161.777 19.68C161.483 19.2 160.977 18.7733 160.257 18.4C159.537 18.0267 158.497 17.6267 157.137 17.2C154.07 16.2667 151.883 15.12 150.577 13.76C149.297 12.4 148.657 10.68 148.657 8.6C148.657 7 149.083 5.6 149.937 4.4C150.79 3.17333 151.977 2.24 153.497 1.6C155.017 0.933331 156.737 0.599998 158.657 0.599998Z" fill="#141414"/>
</svg>
